# xmcd
#
# Track frame offsets:
#	150
#	9975
#	23513
#	39856
#	50934
#	61614
#	71634
#	82344
#	94337
#	106135
#	116673
#	128163
#
# Disc length: 1857 seconds
#
# Revision: 1
# Processed by: cddbd v1.5.2PL0 Copyright (c) Steve Scherf et al.
# Submitted via: audiograbber 1.83.01
#
DISCID=98073f0c
DTITLE=Flatt and Scruggs - Folk Songs Of Our Land
DYEAR=1962
DGENRE=Country
TTITLE0=The Legend Of The Johnson Boys
TTITLE1=Hear The Wind Blow
TTITLE2=George Alley's F.F.V.
TTITLE3=Good Times Are Past And Gone
TTITLE4=Ellen Smith
TTITLE5=Sun's Gonna Shine In My Back Door Some Day
TTITLE6=This Land Is Your Land
TTITLE7=Philidelphia Lawyer
TTITLE8=Life Of Trouble
TTITLE9=Nine Pound Hammer
TTITLE10=I'll Be No Man's Wife
TTITLE11=McKenley's Gone
EXTD=
EXTT0=
EXTT1=
EXTT2=
EXTT3=
EXTT4=
EXTT5=
EXTT6=
EXTT7=
EXTT8=
EXTT9=
EXTT10=
EXTT11=
PLAYORDER=
